<?xml version="1.0" encoding="UTF-8"?>
<svg width="224px" height="88px" viewBox="0 0 224 88" version="1.1" xmlns="http://www.w3.org/2000/svg" xmlns:xlink="http://www.w3.org/1999/xlink">
    <!-- Generator: Sketch 41.2 (35397) - http://www.bohemiancoding.com/sketch -->
    <title>solar-system</title>
    <desc>Created with Sketch.</desc>
    <defs></defs>
    <g id="Page-1" stroke="none" stroke-width="1" fill="none" fill-rule="evenodd">
        <g id="solar-system">
            <path d="M34.785134,31.7363872 C34.9825411,29.0675886 35.2399309,26.5595506 35.5503889,24.2216076 C34.6463267,23.5299914 33.7626621,22.8722558 32.8980121,22.2513397 C32.4731201,25.1856525 32.13414,28.4044944 31.9026793,31.9011236 C32.8407952,31.838548 33.8032844,31.7840968 34.785134,31.7363872 Z" id="Shape" fill="#B4E7ED"></path>
            <path d="M34.5536733,51.5778738 C33.5324114,50.5498704 32.5398444,49.5327571 31.5908384,48.5318928 C31.624892,49.8418323 31.6751945,51.1135696 31.7351772,52.3593777 C32.6719101,52.4288678 33.622299,52.4928263 34.5986171,52.5445117 C34.5808124,52.227312 34.5699222,51.900605 34.5536733,51.5778738 Z" id="Shape" fill="#CBF2F4"></path>
            <path d="M55.2420052,31.9025065 C55.0091616,28.4058773 54.6715644,25.1856525 54.2466724,22.2527226 C53.3820225,22.8736387 52.4969749,23.5299914 51.5942956,24.2216076 C51.9047537,26.5595506 52.1635264,29.0689715 52.3595506,31.7377701 C53.3398444,31.7854797 54.3025065,31.8399309 55.2420052,31.9025065 Z" id="Shape" fill="#B4E7ED"></path>
            <path d="M43.5716508,84.3082109 C41.0636128,84.3082109 37.9128781,77.7152982 36.0214347,66.1348315 C35.1336214,66.7965428 34.260847,67.4255834 33.3989628,68.0274849 C35.6523768,80.6414866 39.6283492,87.1431288 43.571478,87.1431288 C47.5146067,87.1431288 51.4891962,80.6428695 53.7439931,68.026102 C52.8821089,67.4255834 52.0107174,66.7965428 51.1215212,66.1334486 C49.2304235,77.7152982 46.0796889,84.3082109 43.5716508,84.3082109 Z" id="Shape" fill="#69C7E0"></path>
            <g id="Group" transform="translate(31.460674, 39.757995)" fill="#DCF4F4">
                <path d="M2.94727744,0.0200518583 C1.9642178,1.04667243 1.00432152,2.07605877 0.0729472774,3.10406223 C0.0715643907,3.34226448 0.0674157303,3.57389801 0.0674157303,3.81348315 C0.0674157303,4.05168539 0.0715643907,4.28193604 0.0729472774,4.51737252 C0.994814175,5.53310285 1.9505618,6.55972342 2.94727744,7.60138289 C2.9187554,6.36231634 2.90233362,5.10423509 2.90233362,3.81331029 C2.90095073,2.52134831 2.91858254,1.2605013 2.94727744,0.0200518583 Z" id="Shape"></path>
                <path d="M21.3208297,3.81365601 C21.3208297,5.10440795 21.3031979,6.36387208 21.2758859,7.60293863 C22.2726016,6.55989628 23.2297321,5.53327571 24.1502161,4.51892826 C24.151599,4.28193604 24.1557476,4.05185825 24.1557476,3.81365601 C24.1557476,3.57545376 24.151599,3.346586 24.1502161,3.10976664 C23.2283492,2.09541919 22.2726016,1.06741573 21.2758859,0.0257562662 C21.3031979,1.26464996 21.3208297,2.5227312 21.3208297,3.81365601 Z" id="Shape"></path>
            </g>
            <g id="Group" transform="translate(52.376837, 34.572169)" fill="#CBF2F4">
                <path d="M0.167675022,17.9723423 C1.14399309,17.919274 2.09299914,17.8553155 3.03111495,17.7858254 C3.09109767,16.5412273 3.14140017,15.2694901 3.17545376,13.9597234 C2.22506482,14.9592048 1.23388073,15.9763181 0.212618842,17.0057044 C0.196369922,17.3284356 0.185479689,17.6551426 0.167675022,17.9723423 Z" id="Shape"></path>
                <path d="M0.212618842,0.993085566 C1.23388073,2.02247191 2.22644771,3.03820225 3.17545376,4.03906655 C3.14140017,2.72791703 3.09109767,1.4573898 3.03111495,0.211581677 C2.09438202,0.142091616 1.14399309,0.0781331029 0.167675022,0.0264477096 C0.185479689,0.345030251 0.196369922,0.671737252 0.212618842,0.993085566 Z" id="Shape"></path>
            </g>
            <path d="M43.5716508,2.83491789 C46.0796889,2.83491789 49.2304235,9.4278306 51.1218669,21.0082973 C52.0096802,20.346586 52.8824546,19.7175454 53.7443388,19.1156439 C51.4893691,6.50025929 47.5147796,0 43.5716508,0 C39.628522,0 35.6525497,6.50025929 33.3991357,19.1156439 C34.2610199,19.7175454 35.1324114,20.346586 36.0216076,21.0082973 C37.9127053,9.4278306 41.0634399,2.83491789 43.5716508,2.83491789 Z" id="Shape" fill="#69C7E0"></path>
            <path d="M34.5986171,34.5986171 C33.622299,34.6516854 32.673293,34.7156439 31.7351772,34.785134 C31.6751945,36.0364736 31.624892,37.3163354 31.5908384,38.6343993 C32.5562662,37.6105445 33.5434745,36.5892826 34.5536733,35.5721694 C34.5671564,35.2480553 34.5808124,34.9185825 34.5986171,34.5986171 Z" id="Shape" fill="#CBF2F4"></path>
            <g id="Group" transform="translate(31.806396, 35.436474)" fill="#B4E7ED">
                <path d="M20.551599,19.9702679 C20.3541919,22.6390666 20.0968021,25.1471046 19.7877269,27.4850475 C20.6891962,28.1766638 21.5742437,28.8330164 22.4387208,29.4539326 C22.8636128,26.5210026 23.2025929,23.3021608 23.4340536,19.8055315 C22.4961106,19.8681072 21.5334486,19.9225583 20.551599,19.9702679 Z" id="Shape"></path>
                <path d="M0.0947277442,19.8055315 C0.327571305,23.3021608 0.665168539,26.5210026 1.0900605,29.4539326 C1.95471046,28.8330164 2.83837511,28.1766638 3.74243734,27.4850475 C3.43197926,25.1471046 3.17458946,22.6390666 2.97718237,19.9702679 C1.9968885,19.9225583 1.03439931,19.8681072 0.0947277442,19.8055315 Z" id="Shape"></path>
                <path d="M26.3412273,5.97424373 C27.0029386,6.70406223 27.6470182,7.42437338 28.2693172,8.13517718 C30.5799481,5.49369058 32.621089,2.97458946 34.3965428,0.59585134 C33.3467589,0.424373379 32.2506482,0.262229905 31.1177182,0.112532411 C29.6826275,1.98738116 28.0909248,3.94399309 26.3412273,5.97424373 Z" id="Shape"></path>
            </g>
            <g id="Group" transform="translate(11.235955, 11.235955)" fill="#80D9E8">
                <path d="M59.3975799,3.00380294 C60.2063959,3.00380294 60.7932584,3.18081245 61.1417459,3.52929991 C62.9104581,5.2980121 60.4677615,12.1728608 53.6556612,21.6618842 C54.7612792,21.8212619 55.8369922,21.9927398 56.860847,22.1764909 C64.1536733,11.6935177 65.9277442,4.30942092 63.1446845,1.52636128 C62.2445981,0.626274849 60.9837511,0.170267934 59.3961971,0.170267934 C55.5033708,0.170267934 49.4713915,3.01331029 42.506828,7.87968885 C42.6852204,8.88452895 42.8527226,9.93292999 43.0093345,11.0155575 C50.3661193,5.73656007 56.2537597,3.00380294 59.3975799,3.00380294 Z" id="Shape"></path>
                <path d="M5.27502161,61.6660328 C4.4662057,61.6660328 3.87934313,61.4890233 3.53085566,61.1405359 C2.45514261,60.0648228 2.76024201,56.193777 7.16231634,48.8247191 C8.27346586,46.9647364 9.57234226,45.014866 11.0129646,43.0093345 C9.9386344,42.8541054 8.89835782,42.6879862 7.90164218,42.5095938 C6.73880726,44.1761452 5.66309421,45.8060501 4.72912705,47.3718237 C0.0219533276,55.2542783 -1.05635264,60.5604149 1.52653414,63.1433016 C2.42662057,64.0420052 3.68746759,64.498185 5.27502161,64.498185 C9.166465,64.498185 15.1984443,61.6551426 22.1630078,56.788764 C21.9846154,55.7839239 21.8171132,54.7367329 21.6605013,53.6528954 C14.3064823,58.9346586 8.41884183,61.6660328 5.27502161,61.6660328 Z" id="Shape"></path>
            </g>
            <path d="M41.4338807,58.1339672 C39.4024201,59.8864304 37.4388937,61.4767502 35.5503889,62.9227312 C35.6961106,64.031115 35.8553155,65.1054451 36.0228176,66.1348315 C38.4641314,64.3144339 40.9927398,62.2691443 43.5730337,60.0307692 C42.8622299,59.4140017 42.1486603,58.7780467 41.4338807,58.1339672 Z" id="Shape" fill="#B4E7ED"></path>
            <path d="M55.6108902,44.2769231 C55.6053587,45.7298185 55.586344,47.1512532 55.5522904,48.5332757 C56.4509939,47.5856525 57.3128781,46.6542783 58.1474503,45.7337943 C57.5292999,45.0176318 56.919274,44.3040622 56.2603284,43.571478 C56.053414,43.8031115 55.8233362,44.0440795 55.6108902,44.2769231 Z" id="Shape" fill="#CBF2F4"></path>
            <path d="M47.3718237,52.7365601 C48.8082973,52.7052723 50.2095073,52.6547969 51.5737252,52.5908384 C51.746586,52.4205704 51.9168539,52.2585998 52.0897148,52.0871219 C52.2599827,51.9168539 52.4205704,51.7481417 52.5894555,51.5778738 C52.6561798,50.2081245 52.7038894,48.8015557 52.7351772,47.3595506 C51.873293,48.259637 51.0019015,49.1650821 50.0841832,50.0828003 C49.1718237,50.9963699 48.2677615,51.8788245 47.3718237,52.7365601 Z" id="Shape" fill="#DCF4F4"></path>
            <g id="Group" transform="translate(28.867761, 28.867761)" fill="#CBF2F4">
                <path d="M2.6644771,13.9944685 C2.67000864,12.5510804 2.68902334,11.139153 2.72307692,9.76663786 C1.84477096,10.6980121 0.981503889,11.6293863 0.14278306,12.5605877 C0.758167675,13.2727744 1.36542783,13.9834054 2.02316335,14.7132239 C2.23820225,14.4736387 2.44649957,14.2340536 2.6644771,13.9944685 Z" id="Shape"></path>
                <path d="M14.7038894,27.3790838 C15.4242005,28.0245462 16.1389801,28.6575627 16.8444252,29.2662057 C17.7757995,28.4274849 18.7071737,27.5669836 19.6452895,26.6831461 C18.2727744,26.7185825 16.860847,26.7375972 15.4174589,26.7431288 C15.177701,26.9597234 14.9434745,27.1638721 14.7038894,27.3790838 Z" id="Shape"></path>
                <path d="M14.7038894,2.02990493 C13.9835782,1.38444252 13.2687986,0.751426102 12.5633535,0.14278306 C11.6333621,0.980121003 10.700605,1.84079516 9.7624892,2.72445981 C11.1363872,2.68902334 12.5469317,2.67000864 13.9903198,2.66585998 C14.2299049,2.44788245 14.4641314,2.24373379 14.7038894,2.02990493 Z" id="Shape"></path>
            </g>
            <path d="M39.7713051,34.4079516 C38.3348315,34.4392394 36.9337943,34.4883319 35.5694036,34.5536733 C35.3979257,34.7239412 35.2262748,34.884529 35.0560069,35.0561798 C34.884529,35.2264477 34.7237684,35.4006914 34.5535004,35.5721694 C34.4867761,36.937943 34.4390666,38.340363 34.4077787,39.7782195 C35.2751945,38.8700086 36.1574762,37.9617978 37.0601556,37.0591184 C37.9713051,36.1481417 38.8753673,35.2643042 39.7713051,34.4079516 Z" id="Shape" fill="#DCF4F4"></path>
            <g id="Group" transform="translate(20.916162, 20.916162)" fill="#B4E7ED">
                <path d="M24.7944685,8.09438202 C26.8247191,6.34191876 28.7880726,4.75159896 30.6765774,3.30561798 C30.5308557,2.19723423 30.3716508,1.12290406 30.2041487,0.0921348315 C27.7628349,1.9139153 25.2328436,3.95903198 22.6539326,6.19757995 C23.3647364,6.81313742 24.078306,7.44891962 24.7944685,8.09438202 Z" id="Shape"></path>
                <path d="M6.17856525,22.6867761 C3.97147796,25.2343993 1.94399309,27.7533276 0.113915298,30.2096802 C1.13656007,30.3771824 2.20121003,30.5324114 3.30008643,30.6781331 C4.77337943,28.7555748 6.37182368,26.7948142 8.07796024,24.8150389 C7.42575627,24.0973207 6.79256698,23.3878997 6.17856525,22.6867761 Z" id="Shape"></path>
            </g>
            <g id="Group" transform="translate(34.572169, 31.460674)" fill="#CBF2F4">
                <path d="M0.0264477096,21.0838375 C0.0795159896,22.0601556 0.143474503,23.0091616 0.212964564,23.9458946 C1.46430424,24.0058773 2.74140017,24.0561798 4.06084702,24.0902334 C3.04096802,23.1275713 2.01970614,22.1431288 0.997234226,21.1301642 C0.675885912,21.1152982 0.346413137,21.1016422 0.0264477096,21.0838375 Z" id="Shape"></path>
                <path d="M0.997234226,3.09299914 C2.01849611,2.07865169 3.03958513,1.09420916 4.05808124,0.131547105 C2.74140017,0.165600691 1.46413137,0.215903198 0.212964564,0.275885912 C0.143474503,1.21261884 0.0795159896,2.16300778 0.0264477096,3.13794296 C0.346413137,3.12152118 0.674503025,3.10786517 0.997234226,3.09299914 Z" id="Shape"></path>
                <path d="M17.9723423,3.13794296 C17.919274,2.16162489 17.8553155,1.21261884 17.7858254,0.275885912 C16.5344857,0.215903198 15.2573898,0.165600691 13.9393258,0.131547105 C14.9592048,1.09420916 15.9790838,2.07865169 17.0001729,3.09161625 C17.3229041,3.10786517 17.6523768,3.12013829 17.9723423,3.13794296 Z" id="Shape"></path>
            </g>
            <path d="M43.5661193,54.1989628 L43.5661193,52.7815039 C42.2739844,52.7815039 41.0131374,52.7638721 39.7740709,52.7365601 C40.8143475,53.7318928 41.8423509,54.6864304 42.8594641,55.6095073 C43.0976664,55.6095073 43.327917,55.613656 43.5675022,55.613656 L43.5716508,55.613656 C43.8140017,55.613656 44.0454624,55.6095073 44.2838375,55.6095073 C45.3023336,54.6850475 46.3303371,53.7318928 47.3719965,52.7365601 C46.1287813,52.7638721 44.8665514,52.7815039 43.5718237,52.7815039 L43.5661193,54.1989628 Z" id="Shape" fill="#DCF4F4"></path>
            <path d="M87.1431288,43.5716508 C87.1431288,39.6352636 80.6686258,35.6687986 68.098185,33.4126188 C67.5045808,34.2649957 66.8713915,35.1405359 66.2027658,36.032325 C77.7424373,37.9249784 84.308038,41.0689715 84.3094209,43.5716508 C84.308038,46.0743302 77.7424373,49.2183232 66.2027658,51.1109767 C66.8700086,52.0027658 67.5057908,52.878306 68.0995678,53.7306828 C80.6672429,51.4757131 87.1431288,47.508038 87.1431288,43.5716508 Z" id="Shape" fill="#69C7E0"></path>
            <g id="Group" transform="translate(22.126188, 31.806396)" fill="#B4E7ED">
                <path d="M33.2805532,2.97735523 C35.9493518,3.17337943 38.4601556,3.43215212 40.7979257,3.7426102 C41.4923077,2.83716508 42.1458946,1.95488332 42.7654278,1.09161625 C39.8324978,0.666724287 36.613656,0.329127053 33.1156439,0.0962834918 C33.1783924,1.03560933 33.2342264,1.9968885 33.2805532,2.97735523 Z" id="Shape"></path>
                <path d="M9.61019879,20.5529818 C6.9386344,20.3555748 4.42921348,20.098185 2.09144339,19.7877269 C1.40518583,20.6822818 0.754364736,21.5659464 0.123941227,22.4401037 C3.05825411,22.8649957 6.27847882,23.2025929 9.77649092,23.4354365 C9.71235955,22.4947277 9.6565255,21.5334486 9.61019879,20.5529818 Z" id="Shape"></path>
            </g>
            <path d="M47.3690579,34.4065687 C46.3287813,33.411236 45.3007779,32.4566984 44.2836646,31.5336214 C44.0413137,31.5336214 43.8043215,31.5294728 43.5619706,31.5294728 C43.3237684,31.5294728 43.0935177,31.5336214 42.8580812,31.5336214 C41.8395851,32.4568712 40.8115817,33.411236 39.7699222,34.4079516 C41.0171132,34.3794296 42.2821089,34.3630078 43.5783924,34.3630078 C44.8719101,34.3616249 46.1299914,34.3792567 47.3690579,34.4065687 Z" id="Shape" fill="#DCF4F4"></path>
            <path d="M2.83491789,43.5716508 C2.83491789,41.0689715 9.39930856,37.9263613 20.9401901,36.0337079 C20.2729473,35.1405359 19.6371651,34.2649957 19.0433881,33.4126188 C6.47588591,35.6674157 0,39.6350908 0,43.5716508 C0,47.5175454 6.50717373,51.4935177 19.1374244,53.7469317 C19.7393258,52.8836646 20.3737252,52.0108902 21.0314607,51.1272256 C9.43595506,49.2359551 2.83491789,46.0810717 2.83491789,43.5716508 Z" id="Shape" fill="#69C7E0"></path>
            <path d="M51.5737252,52.5908384 C50.5524633,53.6038029 49.5313742,54.5882455 48.5128781,55.5509075 C49.8295592,55.5168539 51.106828,55.4665514 52.3579948,55.4065687 C52.4274849,54.4698358 52.4914434,53.5206569 52.5445117,52.5445117 C52.2245462,52.5623163 51.8978392,52.5745895 51.5737252,52.5908384 Z" id="Shape" fill="#CBF2F4"></path>
            <g id="Group" transform="translate(20.916162, 31.806396)" fill="#B4E7ED">
                <path d="M10.9849611,0.0947277442 C7.48694901,0.327571305 4.26810717,0.665168539 1.33517718,1.0900605 C1.95471046,1.95332757 2.61106309,2.83699222 3.30267934,3.74243734 C5.6406223,3.43197926 8.1514261,3.17458946 10.8200519,2.97718237 C10.8665514,1.9968885 10.9223855,1.03560933 10.9849611,0.0947277442 Z" id="Shape"></path>
                <path d="M34.3258427,23.4356093 C37.8238548,23.2027658 41.0426966,22.8651685 43.9756266,22.4402766 C43.3560933,21.5770095 42.7011236,20.6933449 42.0081245,19.7878997 C39.6701815,20.0983578 37.1593777,20.3557476 34.4907519,20.5531547 C34.4442524,21.5334486 34.3884183,22.4947277 34.3258427,23.4356093 Z" id="Shape"></path>
                <path d="M8.09576491,9.62195333 C6.34070873,7.58634399 4.74209162,5.62281763 3.3028522,3.74382022 C2.16992221,3.89351772 1.07381158,4.05566119 0.0240276577,4.22713915 C1.80639585,6.61400173 3.85566119,9.1426102 6.17994814,11.7977528 C6.8048401,11.0734659 7.44217805,10.347796 8.09576491,9.62195333 Z" id="Shape"></path>
            </g>
            <g id="Group" transform="translate(38.547969, 38.547969)" fill="#CBF2F4">
                <path d="M4.31149525,17.0629213 C2.86810717,17.0573898 1.45756266,17.0383751 0.0850475367,17.0043215 C1.02178047,17.8879862 1.9545376,18.7484875 2.88591184,19.5859983 C3.5911841,18.9773552 4.30613656,18.3427831 5.02368194,17.6988764 C4.78530683,17.4836646 4.54969749,17.2808989 4.31149525,17.0629213 Z" id="Shape"></path>
                <path d="M17.0629213,4.31961971 C17.2753673,4.55246327 17.5054451,4.7920484 17.7137424,5.02350908 C18.371478,4.29092481 18.9827139,3.57752809 19.6008643,2.86119274 C18.7661193,1.94070873 17.9042351,1.00933449 17.0057044,0.0630942092 C17.038548,1.44528954 17.0575627,2.86672429 17.0629213,4.31961971 Z" id="Shape"></path>
            </g>
            <path d="M52.7351772,39.7849611 C52.7052723,38.341573 52.6547969,36.9363872 52.5894555,35.565255 C52.4205704,35.394987 52.2585998,35.2276577 52.086949,35.0560069 C51.915471,34.8843561 51.7438202,34.7223855 51.5723423,34.5522904 C50.2065687,34.486949 48.8069144,34.4378565 47.3690579,34.4065687 C48.2663786,35.2643042 49.1718237,36.1481417 50.0828003,37.0603284 C51.0019015,37.9794296 51.8746759,38.8834918 52.7351772,39.7849611 Z" id="Shape" fill="#DCF4F4"></path>
            <path d="M72.3778738,72.3778738 C72.0292135,72.7251513 71.4411409,72.9021608 70.6350908,72.9021608 C67.4910977,72.9021608 61.6022472,70.1707865 54.2466724,64.8904062 C54.0900605,65.9728608 53.9239412,67.0212619 53.7441659,68.0262748 C60.7114952,72.8926534 66.7434745,75.7370787 70.6349179,75.7370787 C72.2212619,75.7370787 73.4821089,75.2822818 74.3820225,74.3821953 C77.1650821,71.5977528 75.3910112,64.2122731 68.0995678,53.7306828 C67.0729473,53.9144339 65.9986171,54.0860847 64.8929991,54.2466724 C71.7052723,63.7343129 74.146586,70.6091616 72.3778738,72.3778738 Z" id="Shape" fill="#80D9E8"></path>
            <path d="M34.4079516,47.3595506 C34.4378565,48.8015557 34.4883319,50.2081245 34.5536733,51.5778738 C34.7225583,51.7481417 34.884529,51.9168539 35.0561798,52.0885048 C35.2264477,52.2599827 35.3993086,52.4221262 35.5695765,52.5922213 C36.93535,52.6575627 38.3363872,52.7066551 39.7742437,52.737943 C38.8755402,51.8802074 37.971478,50.9963699 37.0605013,50.0855661 C36.1412273,49.1650821 35.2684529,48.2610199 34.4079516,47.3595506 Z" id="Shape" fill="#DCF4F4"></path>
            <path d="M44.2836646,31.5336214 C45.7270527,31.539153 47.1389801,31.5581677 48.5101124,31.5922213 C47.5733794,30.7085566 46.6392394,29.8480553 45.7092481,29.0105445 C45.0025929,29.6191876 44.2890233,30.2537597 43.5700951,30.8976664 C43.8098531,31.1114952 44.0454624,31.3156439 44.2836646,31.5336214 Z" id="Shape" fill="#CBF2F4"></path>
            <path d="M14.7666379,14.765255 C15.1151253,14.4179775 15.7033708,14.240968 16.5094209,14.240968 C19.653414,14.240968 25.5424373,16.9723423 32.8964564,22.2513397 C33.0530683,21.168885 33.2191876,20.121694 33.3989628,19.115471 C26.4343993,14.2490925 20.4024201,11.4060501 16.5095938,11.4060501 C14.9232498,11.4060501 13.6624028,11.8622299 12.7624892,12.7609334 C9.97804667,15.5439931 11.7521175,22.9280899 19.0435609,33.4110631 C20.0701815,33.227312 21.1431288,33.0556612 22.2501296,32.8964564 C15.4380294,23.4088159 12.9993086,16.53535 14.7666379,14.765255 Z" id="Shape" fill="#80D9E8"></path>
            <path d="M43.5716508,27.1137424 C40.991357,24.8751945 38.4629213,22.8300778 36.0214347,21.0096802 C35.8539326,22.0404494 35.6959378,23.1133967 35.5490061,24.2217805 C37.4375108,25.6677615 39.4010372,27.2568712 41.4297321,29.0105445 C42.1458946,28.3650821 42.8622299,27.7292999 43.5716508,27.1137424 Z" id="Shape" fill="#B4E7ED"></path>
            <path d="M30.8923077,43.5811582 C30.2482282,44.2987035 29.612446,45.0176318 28.9942956,45.7325843 C29.8302506,46.6530683 30.6923077,47.5844425 31.5908384,48.5334486 C31.5567848,47.1514261 31.5377701,45.7298185 31.5322385,44.2770959 C31.3225583,44.0468453 31.0964564,43.8098531 30.8923077,43.5811582 Z" id="Shape" fill="#CBF2F4"></path>
            <g id="Group" transform="translate(43.560933, 43.560933)" fill="#B4E7ED">
                <path d="M0.0107173725,16.4684529 C2.59101124,18.7070009 5.11944685,20.7521175 7.56093345,22.5725151 C7.72843561,21.5417459 7.88643042,20.4687986 8.03474503,19.3604149 C6.14624028,17.9144339 4.18271392,16.3253241 2.15263613,14.5730337 C1.43630078,15.2171132 0.719965428,15.8530683 0.0107173725,16.4684529 Z" id="Shape"></path>
                <path d="M14.5866897,2.17286085 C16.3363872,4.20172861 17.926707,6.15834054 19.3631806,8.03318928 C20.4961106,7.88349179 21.5922213,7.72134831 22.6420052,7.54987035 C20.8663786,5.17113224 18.8254105,2.65358686 16.5147796,0.0105445117 C15.8924806,0.722731201 15.248401,1.44442524 14.5866897,2.17286085 Z" id="Shape"></path>
            </g>
            <ellipse id="Oval" fill="#FFCE00" cx="43.5716508" cy="43.5716508" rx="10.1671564" ry="10.1671564"></ellipse>
            <path d="M36.3809853,36.3821953 C40.3514261,32.4117545 46.7904927,32.4117545 50.7609334,36.3821953 C54.7313742,40.354019 54.7313742,46.7917027 50.7609334,50.7621435" id="SVGCleanerId_0" fill="#FFB600"></path>
            <g id="Group" transform="translate(33.362143, 33.362143)" fill="#FFCE00">
                <circle id="Oval" cx="10.2095073" cy="10.2095073" r="10.1671564"></circle>
                <circle id="Oval" cx="10.2095073" cy="10.2095073" r="10.1671564"></circle>
            </g>
            <path d="M49.6824546,35.4618842 C50.9692308,37.1638721 51.7412273,39.2770959 51.7412273,41.5742437 C51.7412273,47.1894555 47.1880726,51.7427831 41.572688,51.7427831 C39.2743302,51.7427831 37.1624892,50.9707865 35.4603284,49.6853933 C37.3161625,52.1431288 40.2532411,53.7401901 43.571478,53.7401901 C49.1854797,53.7401901 53.7386344,49.1882455 53.7386344,43.5730337 C53.7388073,40.254624 52.1429559,37.3177182 49.6824546,35.4618842 Z" id="Shape" fill="#FFB600"></path>
            <path d="M36.3809853,36.3821953 C40.3514261,32.4117545 46.7904927,32.4117545 50.7609334,36.3821953 C54.7313742,40.354019 54.7313742,46.7917027 50.7609334,50.7621435" id="SVGCleanerId_0_1_" fill="#FFB600"></path>
            <path d="M53.6950735,42.6838375 C53.6923077,42.6321521 53.686949,42.5816768 53.6814175,42.5299914 C53.6528954,42.2413137 53.6119274,41.9526361 53.5560933,41.6667243 C53.5493518,41.628522 53.5410545,41.5904927 53.5315471,41.5522904 C53.4798617,41.2921348 53.4157303,41.0349179 53.3422645,40.7802939 C53.3272256,40.7325843 53.3177182,40.6836646 53.3028522,40.6359551 C53.2280035,40.3840968 53.1381158,40.1362143 53.0440795,39.8897148 C53.0058773,39.7956785 52.966465,39.7004322 52.9270527,39.6077787 C52.8371651,39.391357 52.7377701,39.1775281 52.6316335,38.966465 C52.5690579,38.8439067 52.4995678,38.7241141 52.4328436,38.6057044 C52.3702679,38.4954192 52.3061366,38.3878997 52.2382022,38.2802074 C52.1033708,38.0610199 51.9631806,37.847191 51.8133103,37.6402766 C51.7630078,37.5707865 51.7139153,37.5014693 51.660847,37.4319793 C51.4579084,37.1650821 51.2401037,36.9076923 51.0100259,36.6627485 C50.994987,36.6451167 50.980121,36.6286949 50.9650821,36.6110631 C50.5702679,36.1930856 50.1426102,35.8089888 49.6824546,35.4632671 C50.9692308,37.165255 51.7412273,39.2784788 51.7412273,41.5756266 C51.7412273,44.3832325 50.6043215,46.9253241 48.7619706,48.7649092 L50.7593777,50.7623163 C50.7730337,50.7486603 50.7866897,50.7337943 50.7961971,50.7201383 C51.022299,50.4928263 51.2345722,50.2599827 51.4321521,50.0176318 C51.5273984,49.901815 51.6133103,49.7766638 51.7031979,49.6568712 C51.8121003,49.5111495 51.9237684,49.3668107 52.0245462,49.2171132 C52.1171997,49.0769231 52.2001729,48.9312014 52.2872947,48.7868626 C52.3702679,48.6452895 52.4601556,48.5063094 52.5363872,48.3633535 C52.6140017,48.2203976 52.680726,48.0693172 52.7502161,47.9208297 C52.822299,47.7669836 52.8987035,47.6159032 52.9626621,47.4606742 C53.0212619,47.320484 53.0675886,47.1761452 53.119274,47.0331893 C53.1818496,46.8629213 53.247191,46.6928263 53.2976664,46.5211755 C53.3412273,46.3835782 53.3711322,46.2406223 53.4065687,46.101815 C53.4542783,45.9206569 53.5045808,45.7382887 53.5400173,45.5557476 C53.5699222,45.4032844 53.5877269,45.2466724 53.6121003,45.0914434 C53.6394123,44.9185825 53.6693172,44.7455488 53.686949,44.5713051 C53.714261,44.3139153 53.7210026,44.0511668 53.7263613,43.7884183 C53.7346586,43.4176318 53.7277442,43.0501296 53.6950735,42.6838375 Z" id="Shape" fill="#FFA300"></path>
            <path d="M33.4044944,43.5716508 C33.4044944,37.9550562 37.9550562,33.4031115 43.5716508,33.4031115" id="Shape" fill="#FFE000"></path>
            <g id="Group" transform="translate(35.955056, 40.968021)" fill="#FFEB76">
                <ellipse id="Oval" cx="1.34900605" cy="4.13396716" rx="1.18461538" ry="1.18461538"></ellipse>
                <circle id="Oval" cx="3.15803803" cy="0.386214347" r="0.25"></circle>
                <ellipse id="Oval" cx="7.16715644" cy="6.47052723" rx="0.85099395" ry="0.85099395"></ellipse>
            </g>
            <g id="Group" transform="translate(44.252377, 36.646500)" fill="#FFCE00">
                <ellipse id="Oval" cx="1.41607606" cy="1.49628349" rx="1.33171997" ry="1.33171997"></ellipse>
                <ellipse id="Oval" cx="2.41815039" cy="5.9011236" rx="0.407087295" ry="0.407087295"></ellipse>
                <ellipse id="Oval" cx="5.19325843" cy="4.75332757" rx="0.740708729" ry="0.740708729"></ellipse>
                <ellipse id="Oval" cx="6.97147796" cy="8.15868626" rx="0.443906655" ry="0.443906655"></ellipse>
            </g>
            <ellipse id="Oval" fill="#D85039" cx="34.7211755" cy="22.4665514" rx="4.6525497" ry="4.6525497"></ellipse>
            <path d="M34.7265341,27.119274 C32.1571305,27.119274 30.0751945,25.0359551 30.0751945,22.4667243" id="Shape" fill="#EA5449"></path>
            <path d="M31.4368194,19.1770095 C33.2532411,17.3605877 36.1996543,17.3605877 38.0160761,19.1770095 C39.8324978,20.9934313 39.8324978,23.9412273 38.0160761,25.7576491" id="Shape" fill="#BC311B"></path>
            <path d="M30.0751945,22.4665514 C30.0751945,19.8971478 32.1571305,17.8140017 34.7265341,17.8140017" id="Shape" fill="#EF6250"></path>
            <path d="M39.3804667,22.4665514 C39.3804667,25.0359551 37.2957649,27.1191011 34.7265341,27.1191011" id="Shape" fill="#AD2112"></path>
            <path d="M34.7265341,17.8140017 C37.2959378,17.8140017 39.3804667,19.8973207 39.3804667,22.4665514" id="Shape" fill="#C43A2C"></path>
            <ellipse id="Oval" fill="#80D9E8" cx="61.5066551" cy="61.4999136" rx="3.06361279" ry="3.06361279"></ellipse>
            <path d="M61.5066551,64.5635264 C59.8141746,64.5635264 58.4430424,63.1923941 58.4430424,61.4999136" id="Shape" fill="#B4E7ED"></path>
            <path d="M59.3389801,59.3322385 C60.5358686,58.1367329 62.4760588,58.13535 63.6729473,59.3322385 C64.8698358,60.5291271 64.8698358,62.4693172 63.6729473,63.6662057" id="Shape" fill="#69C7E0"></path>
            <path d="M58.4430424,61.4999136 C58.4430424,59.807433 59.8141746,58.4363008 61.5066551,58.4363008" id="Shape" fill="#B4E7ED"></path>
            <path d="M64.5702679,61.4999136 C64.5702679,63.1923941 63.1977528,64.5635264 61.5066551,64.5635264" id="Shape" fill="#52BEDB"></path>
            <path d="M61.5066551,58.4349179 C63.1977528,58.4349179 64.5702679,59.8060501 64.5702679,61.4985307" id="Shape" fill="#6BC0DD"></path>
            <ellipse id="Oval" fill="#19BF55" cx="25.2579084" cy="50.7771824" rx="2.55298185" ry="2.55298185"></ellipse>
            <path d="M25.2537597,53.3301642 C23.8432152,53.3301642 22.7007779,52.1877269 22.7007779,50.7771824" id="Shape" fill="#20C958"></path>
            <path d="M23.4482282,48.9704408 C24.4449438,47.9737252 26.0625756,47.9737252 27.0592913,48.9704408 C28.0560069,49.9671564 28.0560069,51.5847882 27.0592913,52.5827139" id="Shape" fill="#0EAF6E"></path>
            <path d="M22.7007779,50.7771824 C22.7007779,49.3666379 23.8432152,48.2242005 25.2537597,48.2242005" id="Shape" fill="#21CC5A"></path>
            <path d="M27.8069144,50.7771824 C27.8069144,52.1877269 26.6630942,53.3301642 25.2539326,53.3301642" id="Shape" fill="#0AA575"></path>
            <path d="M25.2537597,48.2228176 C26.6630942,48.2228176 27.8067416,49.365255 27.8067416,50.7757995" id="Shape" fill="#15B771"></path>
            <text id="REALM-APPS" font-family="ArialRoundedMTBold, Arial Rounded MT Bold" font-size="36" font-weight="normal" fill="#F6A623">
                <tspan x="99" y="35">REALM </tspan>
                <tspan x="99" y="77">	APPS</tspan>
            </text>
        </g>
    </g>
</svg>